<?xml version="1.0" standalone="no"?>
<!DOCTYPE svg PUBLIC "-//W3C//DTD SVG 20010904//EN"
 "http://www.w3.org/TR/2001/REC-SVG-20010904/DTD/svg10.dtd">
<svg version="1.0" xmlns="http://www.w3.org/2000/svg"
 width="1024.000000pt" height="1024.000000pt" viewBox="0 0 1024.000000 1024.000000"
 preserveAspectRatio="xMidYMid meet">

<g transform="translate(0.000000,1024.000000) scale(0.100000,-0.100000)"
fill="#000000" stroke="none">
<path d="M4750 7615 l0 -325 350 0 350 0 0 325 0 325 -350 0 -350 0 0 -325z"/>
<path d="M3100 6845 l0 -325 350 0 350 0 0 325 0 325 -350 0 -350 0 0 -325z"/>
<path d="M3920 6845 l0 -325 360 0 360 0 0 325 0 325 -360 0 -360 0 0 -325z"/>
<path d="M4750 6845 l0 -325 350 0 350 0 0 325 0 325 -350 0 -350 0 0 -325z"/>
<path d="M7127 6988 c-140 -171 -206 -483 -162 -772 23 -153 69 -281 163 -458
6 -12 -139 -75 -228 -99 l-85 -24 -2570 -5 c-2403 -5 -2572 -6 -2601 -22 -44
-24 -81 -71 -96 -121 -19 -62 -15 -401 6 -557 115 -843 518 -1529 1119 -1903
409 -254 943 -380 1547 -364 1105 29 2019 479 2671 1317 90 116 261 371 344
515 161 279 332 680 404 951 l11 40 72 -9 c90 -12 272 4 378 32 270 72 494
238 649 481 l41 65 -22 19 c-38 31 -168 92 -253 119 -180 56 -439 62 -625 14
-52 -14 -102 -28 -111 -31 -12 -6 -18 10 -33 86 -56 299 -247 579 -497 729
-36 21 -70 39 -76 39 -7 0 -27 -19 -46 -42z m-3742 -2069 c79 -29 164 -114
195 -194 31 -80 31 -187 1 -267 -30 -79 -97 -150 -178 -190 -58 -28 -75 -32
-147 -32 -70 0 -91 4 -146 30 -81 39 -134 91 -174 174 -27 57 -31 75 -31 150
0 72 5 94 28 145 47 101 139 178 244 205 53 13 141 4 208 -21z m1850 -50 c116
-35 245 -139 245 -196 0 -37 -27 -63 -65 -63 -23 0 -41 10 -69 39 -60 62 -155
104 -247 109 -169 10 -302 -70 -374 -226 -38 -83 -85 -97 -128 -40 l-21 28 24
57 c104 256 364 376 635 292z m-574 -709 c63 -66 129 -227 129 -314 0 -40 -26
-66 -66 -66 -32 0 -64 28 -64 57 0 6 -4 23 -10 37 l-9 25 -64 -37 -64 -37 18
-52 c51 -149 62 -386 23 -513 -85 -282 -340 -428 -639 -365 -195 41 -335 177
-381 371 -18 73 -24 270 -11 335 l7 36 -192 7 c-346 12 -542 37 -788 97 -136
34 -216 62 -242 86 -37 33 -11 103 39 103 13 0 74 -15 136 -34 534 -162 1314
-165 1802 -9 88 28 268 103 282 116 1 2 -9 30 -22 63 -30 72 -31 88 -5 114 33
33 77 26 121 -20z"/>
<path d="M3159 4790 c-135 -71 -160 -250 -50 -360 93 -93 225 -86 310 17 92
111 55 286 -74 344 -53 25 -139 24 -186 -1z"/>
<path d="M4335 3764 c-22 -8 -84 -26 -139 -39 -54 -14 -100 -26 -102 -28 -11
-11 -34 -196 -34 -278 0 -125 -9 -149 -53 -149 -68 0 -70 7 -64 186 4 87 9
174 13 193 6 29 4 33 -10 28 -9 -4 -77 -12 -151 -19 l-135 -12 -7 -35 c-15
-68 -8 -292 10 -339 25 -66 84 -148 130 -182 74 -54 140 -73 252 -73 126 0
191 22 271 95 93 86 134 194 134 356 0 96 -19 214 -45 276 -17 40 -15 40 -70
20z"/>
<path d="M2290 6078 l0 -328 345 0 345 0 -2 326 -3 326 -342 2 -343 2 0 -328z"/>
<path d="M3104 6401 c-2 -2 -4 -150 -4 -328 l0 -323 350 0 350 0 0 328 0 327
-346 0 c-190 0 -348 -2 -350 -4z"/>
<path d="M4273 6402 l-353 -2 0 -325 0 -325 360 0 360 0 0 324 c0 179 -3 326
-7 328 -5 2 -167 2 -360 0z"/>
<path d="M4757 6404 c-4 -4 -7 -153 -7 -331 l0 -323 350 0 350 0 0 325 0 325
-329 0 c-181 0 -336 2 -343 5 -8 3 -17 2 -21 -1z"/>
<path d="M5574 6401 c-2 -2 -4 -150 -4 -328 l0 -323 355 0 355 0 0 325 c0 179
-3 325 -7 325 -60 3 -696 4 -699 1z"/>
</g>
</svg>
