<svg version="1.2" xmlns="http://www.w3.org/2000/svg" viewBox="0 0 800 600" width="800" height="600">
	<style>
		.s0 { fill: #000000 } 
	</style>
	<g>
		<path class="s0" d="m363 50.5v32.5h35 35v-32.5-32.5h-35-35z"/>
		<path class="s0" d="m198 127.5v32.5h35 35v-32.5-32.5h-35-35z"/>
		<path class="s0" d="m280 127.5v32.5h36 36v-32.5-32.5h-36-36z"/>
		<path class="s0" d="m363 127.5v32.5h35 35v-32.5-32.5h-35-35z"/>
		<path class="s0" d="m600.7 113.2c-14 17.1-20.6 48.3-16.2 77.2 2.3 15.3 6.9 28.1 16.3 45.8 0.6 1.2-13.9 7.5-22.8 9.9l-8.5 2.4-257 0.5c-240.3 0.5-257.2 0.6-260.1 2.2-4.4 2.4-8.1 7.1-9.6 12.1-1.9 6.2-1.5 40.1 0.6 55.7 11.5 84.3 51.8 152.9 111.9 190.3 40.9 25.4 94.3 38 154.7 36.4 110.5-2.9 201.9-47.9 267.1-131.7 9-11.6 26.1-37.1 34.4-51.5 16.1-27.9 33.2-68 40.4-95.1l1.1-4 7.2 0.9c9 1.2 27.2-0.4 37.8-3.2 27-7.2 49.4-23.8 64.9-48.1l4.1-6.5-2.2-1.9c-3.8-3.1-16.8-9.2-25.3-11.9-18-5.6-43.9-6.2-62.5-1.4-5.2 1.4-10.2 2.8-11.1 3.1-1.2 0.6-1.8-1-3.3-8.6-5.6-29.9-24.7-57.9-49.7-72.9-3.6-2.1-7-3.9-7.6-3.9-0.7 0-2.7 1.9-4.6 4.2zm-374.2 206.9c7.9 2.9 16.4 11.4 19.5 19.4 3.1 8 3.1 18.7 0.1 26.7-3 7.9-9.7 15-17.8 19-5.8 2.8-7.5 3.2-14.7 3.2-7 0-9.1-0.4-14.6-3-8.1-3.9-13.4-9.1-17.4-17.4-2.7-5.7-3.1-7.5-3.1-15 0-7.2 0.5-9.4 2.8-14.5 4.7-10.1 13.9-17.8 24.4-20.5 5.3-1.3 14.1-0.4 20.8 2.1zm185 5c11.6 3.5 24.5 13.9 24.5 19.6 0 3.7-2.7 6.3-6.5 6.3-2.3 0-4.1-1-6.9-3.9-6-6.2-15.5-10.4-24.7-10.9-16.9-1-30.2 7-37.4 22.6-3.8 8.3-8.5 9.7-12.8 4l-2.1-2.8 2.4-5.7c10.4-25.6 36.4-37.6 63.5-29.2zm-57.4 70.9c6.3 6.6 12.9 22.7 12.9 31.4 0 4-2.6 6.6-6.6 6.6-3.2 0-6.4-2.8-6.4-5.7 0-0.6-0.4-2.3-1-3.7l-0.9-2.5-6.4 3.7-6.4 3.7 1.8 5.2c5.1 14.9 6.2 38.6 2.3 51.3-8.5 28.2-34 42.8-63.9 36.5-19.5-4.1-33.5-17.7-38.1-37.1-1.8-7.3-2.4-27-1.1-33.5l0.7-3.6-19.2-0.7c-34.6-1.2-54.2-3.7-78.8-9.7-13.6-3.4-21.6-6.2-24.2-8.6-3.7-3.3-1.1-10.3 3.9-10.3 1.3 0 7.4 1.5 13.6 3.4 53.4 16.2 131.4 16.5 180.2 0.9 8.8-2.8 26.8-10.3 28.2-11.6 0.1-0.2-0.9-3-2.2-6.3-3-7.2-3.1-8.8-0.5-11.4 3.3-3.3 7.7-2.6 12.1 2z"/>
		<path class="s0" d="m203.9 333c-13.5 7.1-16 25-5 36 9.3 9.3 22.5 8.6 31-1.7 9.2-11.1 5.5-28.6-7.4-34.4-5.3-2.5-13.9-2.4-18.6 0.1z"/>
		<path class="s0" d="m321.5 435.6c-2.2 0.8-8.4 2.6-13.9 3.9-5.4 1.4-10 2.6-10.2 2.8-1.1 1.1-3.4 19.6-3.4 27.8 0 12.5-0.9 14.9-5.3 14.9-6.8 0-7-0.7-6.4-18.6 0.4-8.7 0.9-17.4 1.3-19.3 0.6-2.9 0.4-3.3-1-2.8-0.9 0.4-7.7 1.2-15.1 1.9l-13.5 1.2-0.7 3.5c-1.5 6.8-0.8 29.2 1 33.9 2.5 6.6 8.4 14.8 13 18.2 7.4 5.4 14 7.3 25.2 7.3 12.6 0 19.1-2.2 27.1-9.5 9.3-8.6 13.4-19.4 13.4-35.6 0-9.6-1.9-21.4-4.5-27.6-1.7-4-1.5-4-7-2z"/>
		<path class="s0" d="m117 204.2v32.8h34.5 34.5l-0.2-32.6-0.3-32.6-34.2-0.2-34.3-0.2z"/>
		<path class="s0" d="m198.4 171.9c-0.2 0.2-0.4 15-0.4 32.8v32.3h35 35v-32.8-32.7h-34.6c-19 0-34.8 0.2-35 0.4z"/>
		<path class="s0" d="m315.3 171.8l-35.3 0.2v32.5 32.5h36 36v-32.4c0-17.9-0.3-32.6-0.7-32.8-0.5-0.2-16.7-0.2-36 0z"/>
		<path class="s0" d="m363.7 171.6c-0.4 0.4-0.7 15.3-0.7 33.1v32.3h35 35v-32.5-32.5h-32.9c-18.1 0-33.6-0.2-34.3-0.5-0.8-0.3-1.7-0.2-2.1 0.1z"/>
		<path class="s0" d="m445.4 171.9c-0.2 0.2-0.4 15-0.4 32.8v32.3h35.5 35.5v-32.5c0-17.9-0.3-32.5-0.7-32.5-6-0.3-69.6-0.4-69.9-0.1z"/>
	</g>
</svg>